# AST/ASF file generated using VICON BodyLanguage
# -----------------------------------------------
:version 1.10
:name VICON
:units
  mass 1.0
  length 0.45
  angle deg
:documentation
   .ast/.asf automatically generated from VICON data using
   VICON BodyBuilder and BodyLanguage model FoxedUp or BRILLIANT.MOD
:root
   order TX TY TZ RX RY RZ
   axis XYZ
   position 0 0 0  
   orientation 0 0 0 
:bonedata
  begin
     id 1 
     name lhipjoint
     direction 0.561145 -0.797705 0.220866 
     length 2.46425 
     axis 0 0 0  XYZ
  end
  begin
     id 2 
     name lfemur
     direction 0.34202 -0.939693 0  
     length 7.95556  
     axis 0 0 20  XYZ
    dof rx ry rz
    limits (-160.0 20.0)
           (-70.0 70.0)
           (-60.0 70.0)
  end
  begin
     id 3 
     name ltibia
     direction 0.34202 -0.939693 0   
     length 7.9832   
     axis 0 0 20   XYZ
    dof rx
    limits (-10.0 170.0)
  end
  begin
     id 4 
     name lfoot
     direction 0.0723927 -0.198897 0.977343   
     length 2.23085   
     axis -90 7.62852e-016 20   XYZ
    dof rx rz
    limits (-45.0 90.0)
           (-70.0 20.0)
  end
  begin
     id 5 
     name ltoes
     direction 1.53826e-011 -4.21988e-011 1   
     length 1.12127   
     axis -90 7.62852e-016 20   XYZ
    dof rx
    limits (-90.0 20.0)
  end
  begin
     id 6 
     name rhipjoint
     direction -0.610499 -0.763299 0.21134   
     length 2.57533  
     axis 0 0 0  XYZ 
  end
  begin
     id 7 
     name rfemur
     direction -0.34202 -0.939693 0   
     length 8.65257   
     axis 0 0 -20   XYZ
    dof rx ry rz
    limits (-160.0 20.0)
           (-70.0 70.0)
           (-70.0 60.0)
  end
  begin
     id 8 
     name rtibia
     direction -0.342021 -0.939692 0   
     length 7.37807   
     axis 0 0 -20   XYZ
    dof rx
    limits (-10.0 170.0)
 end
 begin
     id 9 
     name rfoot
     direction -0.0239304 -0.0543852 0.998233   
     length 1.87018  
     axis -90 -7.62852e-016 -20   XYZ
    dof rx rz
    limits (-45.0 90.0)
           (-20.0 70.0)
  end
  begin
     id 10 
     name rtoes
     direction -1.53584e-011 -4.2242e-011 1   
     length 0.951568   
     axis -90 -7.62852e-016 -20   XYZ
    dof rx
    limits (-90.0 20.0)
  end
  begin
     id 11 
     name lowerback
     direction 0.00322089 0.999033 0.0438587   
     length 2.07568   
     axis 0 0 0   XYZ
    dof rx ry rz
    limits (-20.0 45.0)
           (-30.0 30.0)
           (-30.0 30.0)
  end
  begin
     id 12 
     name upperback
     direction -0.00321932 0.999732 -0.0229403   
     length 2.06253   
     axis 0 0 0   XYZ
    dof rx ry rz
    limits (-20.0 45.0)
           (-30.0 30.0)
           (-30.0 30.0)
  end
  begin
     id 13 
     name thorax
     direction -0.00537537 0.998955 -0.0453918   
     length 2.06975   
     axis 0 0 0   XYZ
    dof rx ry rz
    limits (-20.0 45.0)
           (-30.0 30.0)
           (-30.0 30.0)
  end
  begin
     id 14 
     name lowerneck
     direction -0.00013604 0.994111 0.108363   
     length 1.50836   
     axis 0 0 0   XYZ
    dof rx ry rz
    limits (-20.0 45.0)
           (-30.0 30.0)
           (-30.0 30.0)
  end
  begin
     id 15 
     name upperneck
     direction 0.0397262 0.983859 -0.174482   
     length 1.53037   
     axis 0 0 0   XYZ
    dof rx ry rz
    limits (-20.0 45.0)
           (-30.0 30.0)
           (-30.0 30.0)
  end
  begin
     id 16
     name head
     direction 0.0109991 0.997082 -0.0755378  
     length 1.56928  
     axis 0 0 0   XYZ
    dof rx ry rz
    limits (-20.0 45.0)
           (-30.0 30.0)
           (-30.0 30.0)
  end
  begin
     id 17 
     name lclavicle
     direction 0.964749 0.254 -0.068874  
     length 3.26503  
     axis 0 0 0   XYZ
    dof ry rz
    limits (-20.0 10.0)
           (0.0 20.0)
  end
  begin
     id 18 
     name lhumerus
     direction 1 -4.48941e-011 -2.05079e-027   
     length 5.68236   
     axis 180 -30 -90   XYZ
    dof rx ry rz
    limits (-60.0 90.0)
           (-90.0 90.0)
           (-90.0 90.0)
  end
  begin
     id 19
     name lradius
     direction 1 -4.48956e-011 6.2882e-027   
     length 3.17112   
     axis 180 -30 -90   XYZ
    dof rx
    limits (-10.0 170.0)
  end
  begin
     id 20
     name lwrist
     direction 1 -4.49014e-011 1.73219e-026   
     length 1.58556   
     axis -1.04724e-014 90 90   XYZ
    dof ry
    limits (-180.0 0.0)
 end
  begin
     id 21 
     name lhand
     direction 1 -4.49312e-011 3.46438e-026   
     length 0.632691   
     axis -2.21057e-014 90 90   XYZ
    dof rx rz
    limits (-90.0 90.0)
           (-45.0 45.0)
  end
  begin
     id 22 
     name lfingers
     direction 1 -4.48894e-011 6.92876e-026   
     length 0.510091   
     axis -4.42114e-014 90 90   XYZ
    dof rx
    limits (0.0 90.0)
  end
  begin
     id 23
     name lthumb
     direction 0.707107 -6.34705e-011 0.707107   
     length 0.732392   
     axis -90 45 2.85299e-015   XYZ
    dof rx rz
    limits (-45.0 45.0)
           (-45.0 45.0)
  end
  begin
     id 24 
     name rclavicle
     direction -0.954374 0.280496 -0.102435   
     length 3.25419  
     axis 0 0 0   XYZ 
    dof ry rz
    limits (-10.0 20.0)
           (-20.0 0.0)
  end
  begin
     id 25 
     name rhumerus
     direction -1 -4.48994e-011 -1.07204e-017  
     length 5.8712   
     axis 180 30 90   XYZ
    dof rx ry rz
    limits (-90.0 60.0)
           (-90.0 90.0)
           (-90.0 90.0)
  end
  begin
     id 26 
     name rradius
     direction -1 -4.48972e-011 5.89292e-027   
     length 3.37589   
     axis 180 30 90   XYZ
    dof rx
    limits (-10.0 170.0)
  end
  begin
     id 27 
     name rwrist
     direction -1 -4.48942e-011 1.73219e-026   
     length 1.68794   
     axis -1.04724e-014 -90 -90   XYZ
    dof ry
    limits (-180.0 0.0)
  end
  begin
     id 28
     name rhand
     direction -1 -4.48514e-011 3.46438e-026   
     length 0.603257   
     axis -2.21057e-014 -90 -90   XYZ
    dof rx rz
    limits (-90.0 90.0)
           (-45.0 45.0)
  end
  begin
     id 29
     name rfingers
     direction -1 -4.50028e-011 6.92876e-026   
     length 0.486362   
     axis -4.42114e-014 -90 -90   XYZ
    dof rx
    limits (0.0 90.0)
  end
  begin
     id 30
     name rthumb
     direction -0.707107 -6.34926e-011 0.707107   
     length 0.698321   
     axis -90 -45 -2.85299e-015   XYZ
    dof rx rz
    limits (-45.0 45.0)
           (-45.0 45.0)
  end
:hierarchy
  begin
    root lhipjoint rhipjoint lowerback
    lhipjoint lfemur
    lfemur ltibia
    ltibia lfoot
    lfoot ltoes
    rhipjoint rfemur
    rfemur rtibia
    rtibia rfoot
    rfoot rtoes
    lowerback upperback
    upperback thorax
    thorax lowerneck lclavicle rclavicle
    lowerneck upperneck
    upperneck head
    lclavicle lhumerus
    lhumerus lradius
    lradius lwrist
    lwrist lhand lthumb
    lhand lfingers
    rclavicle rhumerus
    rhumerus rradius
    rradius rwrist
    rwrist rhand rthumb
    rhand rfingers
  end

#!OML:ASF I:\Segmentation\Patient Classification 1\Patient 1\Session 1\Patient1.ASF
:FULLY-SPECIFIED
:DEGREES
3005
root 23.9298 18.0348 3.62304 -169.137 -291.124 -1262.67
lowerback -10.4919 1.09874 2.75552
upperback 1.6726 0.927485 3.40571
thorax 7.66358 0.52366 2.21522
lowerneck -14.6458 8.73962 7.13359
upperneck 27.6864 16.1034 -13.1234
head 13.5395 6.74006 -3.49321
rclavicle -4.33351e-014 3.18055e-015
rhumerus -23.2527 -7.05638 -71.1273
rradius 38.5541
rwrist 11.353
rhand -19.6648 31.2523
rfingers 7.12502
rthumb 6.66341 1.37716
lclavicle -4.33351e-014 3.18055e-015
lhumerus -27.8868 -11.4432 95.1312
lradius 42.5962
lwrist 19.8661
lhand -14.5166 34.0557
lfingers 7.12502
lthumb 11.6309 63.7129
rfemur -25.6718 1.89489 20.6001
rtibia 39.3242
rfoot -13.6318 -12.3768
rtoes -72.1772
lfemur -45.6893 6.23641 -27.6191
ltibia 35.9208
lfoot -19.1128 5.65926
ltoes -12.8468
3006
root 24.0045 18.0383 3.61083 -168.808 -291.437 -1262.24
lowerback -10.5745 1.13247 2.69596
upperback 1.70455 0.974444 3.41373
thorax 7.74341 0.543806 2.26888
lowerneck -14.7385 8.76945 7.25147
upperneck 27.9212 16.1681 -13.0882
head 13.6754 6.77626 -3.48601
rclavicle 2.50469e-014 -1.90833e-014
rhumerus -23.279 -6.91016 -71.2857
rradius 38.9096
rwrist 11.1406
rhand -19.258 31.3131
rfingers 7.12502
rthumb 7.05609 1.45068
lclavicle 2.50469e-014 -1.90833e-014
lhumerus -28.009 -11.8003 95.1728
lradius 42.4224
lwrist 19.9491
lhand -14.6358 34.1703
lfingers 7.12502
lthumb 11.516 63.8339
rfemur -25.1596 2.04711 20.8539
rtibia 39.052
rfoot -13.3656 -12.8132
rtoes -72.1971
lfemur -45.8014 6.09456 -27.4584
ltibia 35.161
lfoot -19.5061 6.27387
ltoes -13.1995
3007
root 24.0775 18.0369 3.59608 -168.689 -291.73 -1262.01
lowerback -10.6147 1.17946 2.60986
upperback 1.75801 1.04465 3.39643
thorax 7.82132 0.574121 2.31395
lowerneck -14.8325 8.78976 7.21233
upperneck 28.0349 16.1985 -12.9747
head 13.7312 6.79146 -3.42652
rclavicle -5.28767e-014 -1.74931e-014
rhumerus -23.3091 -6.7146 -71.4216
rradius 39.275
rwrist 10.8626
rhand -18.7387 31.2567
rfingers 7.12502
rthumb 7.55737 1.4117
lclavicle -5.28767e-014 -1.74931e-014
lhumerus -28.5258 -12.3531 95.2402
lradius 43.082
lwrist 20.2665
lhand -14.4805 34.7386
lfingers 7.12502
lthumb 11.6658 64.3939
rfemur -24.6333 2.06348 21.0308
rtibia 38.8128
rfoot -13.1968 -13.0792
rtoes -72.2286
lfemur -45.8599 5.82684 -27.3123
ltibia 34.449
lfoot -20.1625 7.02065
ltoes -12.3766
3008
root 24.1467 18.0299 3.57865 -168.477 -292.051 -1261.62
lowerback -10.5078 1.25296 2.62261
upperback 1.78378 1.1466 3.37743
thorax 7.78622 0.624837 2.30137
lowerneck -14.7833 8.78541 7.17124
upperneck 28.014 16.1651 -12.8598
head 13.6887 6.79003 -3.38256
rclavicle 3.22031e-014 4.6118e-014
rhumerus -23.4964 -6.59918 -71.5478
rradius 39.6308
rwrist 10.6576
rhand -18.9051 31.3728
rfingers 7.12502
rthumb 7.39672 1.52209
lclavicle 3.22031e-014 4.6118e-014
lhumerus -28.8665 -12.7494 95.2809
lradius 43.4535
lwrist 20.4939
lhand -14.3213 35.3708
lfingers 7.12502
lthumb 11.8193 65.0173
rfemur -24.0717 1.83085 21.3129
rtibia 38.6076
rfoot -13.1178 -13.1575
rtoes -72.2742
lfemur -45.8462 5.41325 -27.0171
ltibia 33.7975
lfoot -21.1673 7.91564
ltoes -10.5475
3009
root 24.2113 18.0203 3.55884 -167.992 -292.45 -1261.01
lowerback -10.5053 1.27844 2.71231
upperback 1.83851 1.16578 3.4209
thorax 7.84461 0.63822 2.30238
lowerneck -14.6931 8.80614 7.2363
upperneck 27.8741 16.1909 -12.9546
head 13.6302 6.80733 -3.42637
rclavicle 5.1684e-015 4.29375e-014
rhumerus -23.5363 -6.45901 -71.6377
rradius 39.9102
rwrist 10.6945
rhand -18.5202 31.9658
rfingers 7.12502
rthumb 7.76822 2.12854
lclavicle 5.1684e-015 4.29375e-014
lhumerus -28.7813 -12.7815 95.2888
lradius 43.1462
lwrist 20.3567
lhand -14.2444 35.3701
lfingers 7.12502
lthumb 11.8935 65.0123
rfemur -23.6214 1.40486 21.713
rtibia 38.4418
rfoot -13.0834 -13.2405
rtoes -72.3112
lfemur -45.9379 5.16218 -26.7601
ltibia 33.2161
lfoot -22.1349 8.81268
ltoes -9.48523
3010
root 24.2782 18.0111 3.54145 -167.52 -292.925 -1260.47
lowerback -10.9054 1.2313 2.6558
upperback 2.093 1.07397 3.52565
thorax 8.34908 0.58891 2.45268
lowerneck -14.8268 8.85843 7.21559
upperneck 27.7064 16.2723 -13.0843
head 13.6128 6.82108 -3.4489
rclavicle -5.40694e-014 -3.97569e-014
rhumerus -23.1161 -6.40345 -71.6937
rradius 40.0047
rwrist 11.0348
rhand -16.9715 32.6855
rfingers 7.12502
rthumb 9.26282 2.90894
lclavicle -5.40694e-014 -3.97569e-014
lhumerus -28.3617 -12.8034 95.2461
lradius 42.6811
lwrist 20.2781
lhand -14.1478 35.0475
lfingers 7.12502
lthumb 11.9866 64.6843
rfemur -23.2408 1.30157 22.066
rtibia 38.3202
rfoot -12.8773 -13.6853
rtoes -72.3436
lfemur -46.0978 5.18107 -26.7161
ltibia 32.7007
lfoot -22.993 9.48881
ltoes -8.78608
3011
root 24.3473 18.0032 3.52714 -167.386 -293.406 -1260.25
lowerback -10.6652 1.1672 2.55964
upperback 1.91092 1.02402 3.46157
thorax 8.0136 0.561256 2.41499
lowerneck -14.7442 8.87982 7.33329
upperneck 27.9152 16.264 -12.8844
head 13.6691 6.85297 -3.3985
rclavicle -2.36554e-014 3.49861e-014
rhumerus -23.4754 -6.34762 -71.9273
rradius 40.1593
rwrist 11.2196
rhand -16.0417 32.7282
rfingers 7.12502
rthumb 10.16 2.99356
lclavicle -2.36554e-014 3.49861e-014
lhumerus -28.7052 -12.9385 95.1049
lradius 42.2243
lwrist 20.4713
lhand -14.0314 34.8977
lfingers 7.12502
lthumb 12.0988 64.5279
rfemur -22.8451 1.24568 22.3073
rtibia 38.2407
rfoot -12.6244 -14.0684
rtoes -72.3521
lfemur -46.2345 5.4717 -26.9655
ltibia 32.24
lfoot -23.7921 10.0606
ltoes -7.19252
3012
root 24.4111 17.9964 3.51427 -167.454 -293.832 -1260.19
lowerback -10.6126 1.12611 2.318
upperback 1.95549 1.00049 3.46883
thorax 8.02706 0.537725 2.55448
lowerneck -14.692 8.84979 7.29301
upperneck 27.7854 16.1908 -12.8547
head 13.5847 6.82598 -3.39471
rclavicle -3.77691e-015 -6.04305e-014
rhumerus -23.4972 -6.10868 -72.0574
rradius 40.4437
rwrist 10.745
rhand -15.9793 32.0646
rfingers 7.12502
rthumb 10.2201 2.33291
lclavicle -3.77691e-015 -6.04305e-014
lhumerus -28.5754 -12.7889 95.0448
lradius 41.6303
lwrist 20.4516
lhand -13.9277 35.1064
lfingers 7.12502
lthumb 12.1988 64.7307
rfemur -22.45 0.940715 22.5022
rtibia 38.1893
rfoot -12.5543 -14.1773
rtoes -72.3608
lfemur -46.3329 5.96043 -27.3901
ltibia 31.8387
lfoot -24.5207 10.9276
ltoes -5.8628
3013
root 24.473 17.9867 3.50048 -167.494 -294.181 -1260.09
lowerback -10.5619 1.15961 2.13303
upperback 2.05711 1.0674 3.46611
thorax 8.10208 0.560789 2.66919
lowerneck -14.8458 8.81696 7.17763
upperneck 27.8039 16.1441 -12.777
head 13.5993 6.79378 -3.34797
rclavicle -1.96797e-014 -3.49861e-014
rhumerus -23.4613 -5.86384 -72.1423
rradius 40.6756
rwrist 10.2942
rhand -16.2076 31.1955
rfingers 7.12502
rthumb 9.99991 1.45309
lclavicle -1.96797e-014 -3.49861e-014
lhumerus -28.4211 -12.6515 95.0161
lradius 41.203
lwrist 20.2471
lhand -13.8875 35.3765
lfingers 7.12502
lthumb 12.2376 64.9985
rfemur -22.0023 0.88767 22.6872
rtibia 38.1333
rfoot -12.4307 -14.5723
rtoes -72.3839
lfemur -46.375 6.40585 -27.7461
ltibia 31.5127
lfoot -25.2431 12.1318
ltoes -5.88547
3014
root 24.5436 17.9734 3.48076 -167.418 -294.525 -1259.92
lowerback -10.5974 1.19427 2.01086
upperback 2.0796 1.12923 3.4193
thorax 8.14329 0.585103 2.70072
lowerneck -14.8727 8.85643 7.30061
upperneck 27.9179 16.2339 -12.8355
head 13.6847 6.83853 -3.37329
rclavicle 2.0276e-014 1.90833e-014
rhumerus -23.594 -5.81219 -72.2707
rradius 40.7455
rwrist 10.4239
rhand -16.7696 30.9458
rfingers 7.12502
rthumb 9.45769 1.17801
lclavicle 2.0276e-014 1.90833e-014
lhumerus -28.3947 -12.6481 94.9225
lradius 40.7204
lwrist 20.0968
lhand -13.9226 35.3514
lfingers 7.12502
lthumb 12.2037 64.9753
rfemur -21.5431 0.945744 22.8897
rtibia 38.0262
rfoot -12.1979 -15.1302
rtoes -72.402
lfemur -46.4498 6.79568 -28.0329
ltibia 31.3069
lfoot -26.2698 13.1574
ltoes -6.08745
3015
root 24.6197 17.9628 3.45687 -166.97 -294.931 -1259.33
lowerback -10.6427 1.20845 2.05198
upperback 2.0573 1.14164 3.43658
thorax 8.14555 0.593239 2.69903
lowerneck -14.6357 8.89533 7.46927
upperneck 27.8085 16.3048 -12.9843
head 13.63 6.89034 -3.45299
rclavicle 5.14852e-014 -3.81667e-014
rhumerus -23.782 -5.74297 -72.3786
rradius 40.7588
rwrist 10.6025
rhand -17.475 31.4553
rfingers 7.12502
rthumb 8.77696 1.65784
lclavicle 5.14852e-014 -3.81667e-014
lhumerus -28.3545 -12.5018 94.831
lradius 40.0463
lwrist 19.9265
lhand -13.9385 35.4524
lfingers 7.12502
lthumb 12.1884 65.0773
rfemur -21.0457 0.782121 23.3014
rtibia 37.8672
rfoot -12.0176 -15.4564
rtoes -72.4164
lfemur -46.5187 7.10995 -28.0406
ltibia 31.2159
lfoot -27.9446 13.6491
ltoes -3.8331
3016
root 24.6951 17.9523 3.4329 -166.313 -295.379 -1258.39
lowerback -10.5834 1.24416 2.28463
upperback 2.0779 1.15936 3.50057
thorax 8.13702 0.613309 2.63825
lowerneck -14.5413 8.88188 7.33937
upperneck 27.7477 16.2587 -12.8235
head 13.5451 6.88277 -3.38066
rclavicle 3.10104e-014 -6.36111e-015
rhumerus -23.9404 -5.58885 -72.4671
rradius 40.7625
rwrist 10.524
rhand -17.9343 31.6314
rfingers 7.12502
rthumb 8.33371 1.81577
lclavicle 3.10104e-014 -6.36111e-015
lhumerus -28.3062 -12.2857 94.765
lradius 39.3762
lwrist 19.6464
lhand -13.7996 35.7684
lfingers 7.12502
lthumb 12.3223 65.3853
rfemur -20.4245 0.471937 23.8908
rtibia 37.6867
rfoot -11.9725 -15.6386
rtoes -72.4374
lfemur -46.5082 7.56245 -27.923
ltibia 31.2033
lfoot -29.3373 13.8596
ltoes -0.248514
3017
root 24.7708 17.9367 3.40756 -166.058 -295.769 -1257.93
lowerback -10.5879 1.27056 2.31448
upperback 2.11604 1.18948 3.49948
thorax 8.1807 0.629488 2.62708
lowerneck -14.5935 8.86238 7.27751
upperneck 27.8258 16.2217 -12.6917
head 13.5627 6.87157 -3.32497
rclavicle -3.06128e-014 4.6118e-014
rhumerus -24.0838 -5.45318 -72.5365
rradius 40.711
rwrist 10.4159
rhand -18.0412 31.663
rfingers 7.12502
rthumb 8.23057 1.84336
lclavicle -3.06128e-014 4.6118e-014
lhumerus -28.2755 -12.0412 94.6651
lradius 38.6637
lwrist 19.2072
lhand -13.5493 35.6313
lfingers 7.12502
lthumb 12.5637 65.2336
rfemur -19.8387 0.117862 24.2412
rtibia 37.5187
rfoot -12.0349 -15.7708
rtoes -72.4679
lfemur -46.5555 8.35332 -28.2799
ltibia 31.2478
lfoot -29.9092 14.2947
ltoes 1.94382
